<svg width="202" height="200" viewBox="0 0 202 200" fill="none" xmlns="http://www.w3.org/2000/svg">
<path d="M5.15359 128.341C12.7725 153.861 29.9045 174.895 53.3945 187.57C76.8845 200.246 103.92 203.044 129.522 195.45C155.123 187.856 176.226 170.779 188.942 147.364C201.658 123.95 204.465 97.0004 196.847 71.481C189.228 45.9618 172.096 24.9271 148.606 12.2519C132.525 3.57451 114.418 -0.547289 96.2419 0.33119C91.9322 0.540067 88.6078 4.19133 88.817 8.48701C89.0262 12.7835 92.6893 16.0964 96.9991 15.888C112.323 15.1467 127.597 18.6259 141.168 25.9487C182.082 48.026 197.349 99.1665 175.201 139.95C153.052 180.733 101.747 195.951 60.8329 173.874C19.9185 151.796 4.6513 100.656 26.7997 59.8727C34.7195 45.2894 46.7792 33.4421 61.6751 25.6113C65.4915 23.6051 66.9538 18.8946 64.9412 15.0905C62.9283 11.2853 58.2026 9.82857 54.3866 11.8349C36.7463 21.108 22.4554 35.1557 13.0588 52.4582C0.342901 75.8728 -2.46428 102.822 5.15359 128.341Z" fill="#52A350"/>
</svg>
